<svg width="45" height="45" viewBox="0 0 45 45" fill="none" xmlns="http://www.w3.org/2000/svg">
<path d="M38.9671 10.569L25.9529 2.78207C25.061 2.24828 24.0403 1.96631 23 1.96631C21.9597 1.96631 20.939 2.24828 20.0471 2.78207L17.2186 4.47721L33.9361 14.4804C34.5102 14.8242 34.9852 15.3103 35.315 15.8914C35.6448 16.4724 35.8182 17.1287 35.8182 17.7964C35.8182 18.4641 35.6448 19.1204 35.315 19.7015C34.9852 20.2825 34.5102 20.7686 33.9361 21.1124L30.8421 22.9645L33.9361 24.8166C34.5105 25.1603 34.9858 25.6465 35.3158 26.2277C35.6457 26.8089 35.8192 27.4654 35.8192 28.1332C35.8192 28.8011 35.6457 29.4576 35.3158 30.0388C34.9858 30.62 34.5105 31.1061 33.9361 31.4498L20.7621 39.3386C20.6505 39.4054 20.5231 39.4414 20.3929 39.4431C20.2627 39.4447 20.1345 39.4119 20.0212 39.3479C19.9079 39.284 19.8137 39.1912 19.7482 39.079C19.6826 38.9669 19.6481 38.8394 19.6482 38.7096V33.8458C19.6482 33.613 19.7087 33.3843 19.8236 33.1817C19.9386 32.9791 20.1042 32.8096 20.3043 32.6897L27.9211 28.1302L23.295 25.3605C22.8408 25.0887 22.465 24.7044 22.2041 24.2448C21.9431 23.7853 21.806 23.2662 21.806 22.7381C21.806 22.21 21.9431 21.6909 22.2041 21.2314C22.465 20.7718 22.8408 20.3875 23.295 20.1157L27.5426 17.5724L15.1002 10.1245C13.9935 9.4615 12.7266 9.11123 11.4354 9.11123C10.1442 9.11123 8.87739 9.4615 7.77062 10.1245L7.69853 10.1664C6.64618 10.7977 5.77554 11.6897 5.17126 12.7556C4.56698 13.8216 4.24961 15.0253 4.25 16.2498V30.4579C4.24989 31.445 4.50614 32.4154 4.99382 33.2744C5.48149 34.1335 6.18397 34.852 7.03285 35.3601L10.2026 37.2577V12.5552C10.2025 12.4254 10.237 12.298 10.3026 12.1858C10.3681 12.0737 10.4623 11.9809 10.5756 11.9169C10.6889 11.853 10.8171 11.8201 10.9473 11.8218C11.0775 11.8234 11.2049 11.8595 11.3165 11.9263L15.4992 14.4301C15.6992 14.55 15.8647 14.7195 15.9796 14.9221C16.0946 15.1247 16.1551 15.3534 16.1552 15.5861V40.0574C16.1551 40.2901 16.2155 40.519 16.3305 40.7216C16.4455 40.9242 16.6111 41.0936 16.8113 41.2134L20.0471 43.1506C20.939 43.6843 21.9597 43.9663 23 43.9663C24.0403 43.9663 25.061 43.6843 25.9529 43.1506L38.9671 35.3637C39.816 34.8556 40.5185 34.1371 41.0062 33.278C41.4939 32.4189 41.7501 31.4486 41.75 30.4615V15.4711C41.75 14.484 41.4937 13.5137 41.006 12.6547C40.5184 11.7956 39.816 11.0771 38.9671 10.569Z" fill="url(#paint0_linear_915_2482)"/>
<g opacity="0.2">
<path opacity="0.85" d="M27.539 17.5724L15.1002 10.1245C13.9933 9.46187 12.7265 9.11182 11.4354 9.11182C10.1443 9.11182 8.87753 9.46187 7.77062 10.1245L7.69853 10.1676C7.30658 10.4033 6.93804 10.6757 6.59789 10.9811C7.33806 10.3258 8.59851 9.86813 10.1882 9.86813C11.4734 9.86847 12.7344 10.2171 13.8362 10.8768L26.2893 18.3163L27.539 17.5724Z" fill="#231F20"/>
<path opacity="0.85" d="M23.2914 25.3605C22.8372 25.0887 22.4614 24.7044 22.2005 24.2448C21.9395 23.7853 21.8024 23.2662 21.8024 22.7381C21.8024 22.21 21.9395 21.6909 22.2005 21.2314C22.4614 20.7718 22.8372 20.3875 23.2914 20.1157V20.1157L22.0333 20.8717C21.5792 21.1434 21.2034 21.5278 20.9424 21.9873C20.6815 22.4469 20.5443 22.966 20.5443 23.494C20.5443 24.0221 20.6815 24.5412 20.9424 25.0008C21.2034 25.4603 21.5792 25.8447 22.0333 26.1164L26.6546 28.891L27.9211 28.1302L23.2914 25.3605Z" fill="#231F20"/>
<path opacity="0.85" d="M20.3042 32.6886L20.9519 32.3004L19.0402 33.4445C18.8401 33.5644 18.6745 33.7339 18.5595 33.9364C18.4446 34.139 18.3842 34.3678 18.3841 34.6005V39.4644C18.3843 39.5942 18.419 39.7216 18.4847 39.8337C18.5504 39.9458 18.6447 40.0386 18.758 40.1025C18.8713 40.1664 18.9996 40.1992 19.1298 40.1976C19.26 40.196 19.3875 40.16 19.4992 40.0933L20.7548 39.3386C20.6431 39.4037 20.5162 39.4383 20.3868 39.4389C20.2573 39.4394 20.1301 39.4059 20.0178 39.3418C19.9055 39.2776 19.8122 39.185 19.7473 39.0734C19.6824 38.9618 19.6482 38.8351 19.6482 38.706V33.8422C19.6486 33.6099 19.7093 33.3816 19.8242 33.1795C19.9391 32.9773 20.1045 32.8082 20.3042 32.6886V32.6886Z" fill="#231F20"/>
</g>
<defs>
<linearGradient id="paint0_linear_915_2482" x1="4.25" y1="22.9663" x2="37.819" y2="33.7577" gradientUnits="userSpaceOnUse">
<stop stop-color="#20D9F7"/>
<stop offset="1" stop-color="#F70776"/>
</linearGradient>
</defs>
</svg>
